# xmcd
#
# Track frame offsets:
#	150
#	30702
#	67030
#	102872
#	131905
#	151272
#	168002
#	192405
#
# Disc length: 2960 seconds
#
# Revision: 2
# Processed by: cddbd v1.5.1PL0 Copyright (c) Steve Scherf et al.
# Submitted via: audiograbber 1.82.02
#
DISCID=670b8e08
DTITLE=Jim Suhler and Alan Haynes - Live At Blue Cat Blues
DYEAR=1900
DGENRE=Blues
TTITLE0=Too Poor To Die
TTITLE1=Knockin' At Your Door
TTITLE2=I Wonder Why
TTITLE3=Down And Out In Texas
TTITLE4=Don't Do It
TTITLE5=Oh My Baby's Gone
TTITLE6=Say Your Prayers
TTITLE7=Are You Experienced
EXTD=
EXTT0=
EXTT1=
EXTT2=
EXTT3=
EXTT4=
EXTT5=
EXTT6=
EXTT7=
PLAYORDER=
